PathFileType	4	(X/Y/Z)	marker.trc
DataRate	CameraRate	NumFrames	NumMarkers	Units	OrigDataRate	OrigDataStartFrame	OrigNumFrames
128	128	11	6	m	128	642	2567
Frame#	Time	US29-1	US29-2	US29-3	US30-1	US30-2	US30-3	
		X1	Y1	Z1	X2	Y2	Z2	X3	Y3	Z3	X4	Y4	Z4	X5	Y5	Z5	X6	Y6	Z6	

641	5	-0.180717036128044	0.069056011736393	0.138928309082985	-0.155520886182785	0.0873488560318947	0.11479677259922	-0.183601021766663	0.091836541891098	0.141008362174034	-0.232975095510483	0.0870341882109642	0.0807540118694305	-0.22922095656395	0.0767461583018303	0.104075767099857	-0.236404329538345	0.0984659418463707	0.103215999901295	
642	5.007812	-0.180912017822266	0.0692922174930573	0.138560190796852	-0.155755773186684	0.0874922350049019	0.114306934177876	-0.183714598417282	0.0920519456267357	0.140608876943588	-0.233178868889809	0.0873119086027145	0.0806039571762085	-0.229073271155357	0.076979786157608	0.103797927498817	-0.236708581447601	0.0987476408481598	0.10299102216959	
643	5.015625	-0.181035414338112	0.069514162838459	0.138177528977394	-0.156005293130875	0.0876278430223465	0.11379736661911	-0.183818012475967	0.0922764018177986	0.140229821205139	-0.233517333865166	0.0875384584069252	0.080395482480526	-0.229230046272278	0.0772729441523552	0.103603780269623	-0.236918702721596	0.0990365892648697	0.102805346250534	
644	5.023437	-0.181141629815102	0.0697639733552933	0.137722939252853	-0.156170770525932	0.0877959579229355	0.113242581486702	-0.183884873986244	0.0925150215625763	0.139768943190575	-0.233912423253059	0.087835006415844	0.080172099173069	-0.229674756526947	0.0775038823485374	0.103422053158283	-0.237146601080894	0.0993560180068016	0.102593138813972	
645	5.03125	-0.181259348988533	0.0700170323252678	0.137320101261139	-0.156473934650421	0.0879885703325272	0.112660050392151	-0.183949857950211	0.0928389355540276	0.13929794728756	-0.234235718846321	0.0882123336195946	0.0799548104405403	-0.229906812310219	0.0779093503952026	0.103139750659466	-0.237446933984756	0.0997307673096657	0.10236943513155	
646	5.039062	-0.181376740336418	0.0703510269522667	0.136783257126808	-0.156605586409569	0.0881771594285965	0.112077012658119	-0.18402424454689	0.0931940972805023	0.138850823044777	-0.234534606337547	0.0886324718594551	0.0796773284673691	-0.230212673544884	0.0783375650644302	0.102887317538261	-0.237547516822815	0.10019862651825	0.102109000086784	
647	5.046875	-0.181439861655235	0.0707193464040756	0.136321797966957	-0.156702190637589	0.0883987173438072	0.111513949930668	-0.18402960896492	0.0935668721795082	0.138377487659454	-0.234689474105835	0.0890586078166962	0.0794138461351395	-0.230224713683128	0.0788455232977867	0.102570995688438	-0.237630993127823	0.100714333355427	0.101766988635063	
648	5.054687	-0.181466147303581	0.0711351111531258	0.135897606611252	-0.15673665702343	0.0886779725551605	0.110937029123306	-0.183950543403625	0.0939742028713226	0.137894928455353	-0.234777629375458	0.0895671546459198	0.0790921673178673	-0.230182155966759	0.0794203877449036	0.10225148499012	-0.237621411681175	0.101252481341362	0.101446896791458	
649	5.0625	-0.181361392140388	0.0715908259153366	0.135382771492004	-0.156678453087807	0.0889970287680626	0.110405147075653	-0.183739632368088	0.094416931271553	0.137410596013069	-0.234856426715851	0.0901505872607231	0.0787284076213837	-0.22991169989109	0.0800573751330376	0.101894780993462	-0.237526223063469	0.101868040859699	0.101115882396698	
650	5.070312	-0.181186586618423	0.0720942765474319	0.134979397058487	-0.156481817364693	0.0893461480736732	0.109932728111744	-0.183512970805168	0.0949429497122765	0.136942028999329	-0.234718427062035	0.0908736884593964	0.0783637911081314	-0.230252891778946	0.0806653425097466	0.101521380245686	-0.237341448664665	0.102648548781872	0.100670285522938	
651	5.078125	-0.180964738130569	0.0727584809064865	0.134456962347031	-0.156216695904732	0.0899575874209404	0.109398677945137	-0.183200925588608	0.0955961868166924	0.13648584485054	-0.234570384025574	0.0917880460619926	0.078036293387413	-0.229808643460274	0.0815712437033653	0.101116575300694	-0.237000599503517	0.103484340012074	0.100331142544746	
